# xmcd
#
# Track frame offsets:
#	150
#	14756
#	29789
#	45438
#	64423
#	78242
#	91589
#	114212
#	131346
#	147179
#	162303
#	182350
#	199484
#	219198
#
# Disc length: 3153 seconds
#
# Revision: 1
# Processed by: cddbd v1.5.1PL2 Copyright (c) Steve Scherf et al.
# Submitted via: audiograbber 1.83.01
#
DISCID=b90c4f0e
DTITLE=Billy Ray Cyrus - Wanna Be Your Joe
DYEAR=2006
DGENRE=Southern Rock
TTITLE0=Wanna Be Your Joe
TTITLE1=I Want My Mullet Back
TTITLE2=The Man
TTITLE3=I Wouldn't Be Me
TTITLE4=What About Us
TTITLE5=Country Music Has The Blues
TTITLE6=The Freebird Fell
TTITLE7=I Wonder
TTITLE8=Lonely Wins
TTITLE9=How've Ya Been
TTITLE10=Ole What's Her Name
TTITLE11=Hey Daddy
TTITLE12=Stand
TTITLE13=A Pain In The Gas
EXTD=
EXTT0=
EXTT1=
EXTT2=
EXTT3=
EXTT4=
EXTT5=
EXTT6=
EXTT7=
EXTT8=
EXTT9=
EXTT10=
EXTT11=
EXTT12=
EXTT13=
PLAYORDER=
